# xmcd
#
# Track frame offsets:
# 150
# 17599
# 32470
# 48044
# 64241
# 79684
# 96257
# 114102
# 136147
# 160122
# 176660
# 189699
# 209000
# 232372
# 251592
# 268763
# 284282
# 302624
# 321823
#
# Disc length: 4565 seconds
#
#
# Revision: 0
# Processed by: cddbd v1.5.2PL0 Copyright (c) Steve Scherf et al.
# Submitted via: FreeRIP 2.944 
#
DISCID=0611d313
DTITLE=Fernando e Sorocaba - Bala de prata
DYEAR=1900
DGENRE=Sertanejo
TTITLE0=Bala de prata
TTITLE1=Vem ficar do meu lado
TTITLE2=Ah, como eu amo você
TTITLE3=Chorei Largado
TTITLE4=Juliana
TTITLE5=Aqui a tristeza pula de alegria
TTITLE6=Ouro e Diamante
TTITLE7=Noite enluarada
TTITLE8=Sonhos
TTITLE9=Volta lá pro seu lugar
TTITLE10=Rei e Rainha
TTITLE11=Procurando amor
TTITLE12=O amor
TTITLE13=Take me home country roads - Dixieland Delight
TTITLE14=Não sei como viver - Luz da minha manhã
TTITLE15=Do inferno ao paraíso
TTITLE16=Companheiro
TTITLE17=Só não muda
TTITLE18=Minha paixão é a estrada
EXTD=
EXTT0=
EXTT1=
EXTT2=
EXTT3=
EXTT4=
EXTT5=
EXTT6=
EXTT7=
EXTT8=
EXTT9=
EXTT10=
EXTT11=
EXTT12=
EXTT13=
EXTT14=
EXTT15=
EXTT16=
EXTT17=
EXTT18=
PLAYORDER=
